<?xml version="1.0" encoding="utf-8"?>
<!-- Generator: Adobe Illustrator 19.2.1, SVG Export Plug-In . SVG Version: 6.00 Build 0)  -->
<svg version="1.1" id="Layer_1" xmlns="http://www.w3.org/2000/svg" xmlns:xlink="http://www.w3.org/1999/xlink" x="0px" y="0px"
	 viewBox="0 0 415.1 296.7" style="enable-background:new 0 0 415.1 296.7;" xml:space="preserve">
<style type="text/css">
	.st0{fill:#BD98C1;}
	.st1{fill:#874487;}
	.st2{fill:url(#SVGID_1_);}
	.st3{fill:#A36FA5;}
</style>
<g>
	<g>
		<path class="st0" d="M155.9,117.9l-21-68.5L114,117.9l-12.8,41.2l-9.3,31.5H31.8L103.4,0h64.2l71.6,190.6h-61.7l-9.5-31.5
			L155.9,117.9z"/>
	</g>
	<g>
		<g>
			<g>
				<path class="st1" d="M29.8,142.4H15.9l-1.9,6.9H1.5l14.9-42.1h13.3l14.9,42.1H31.8L29.8,142.4z M27.2,133.3l-4.4-15.1l-4.3,15.1
					H27.2z"/>
			</g>
		</g>
		<g>
			<g>
				<path class="st1" d="M44.5,149.4v-42.1h20.4c3.8,0,6.7,0.3,8.7,1c2,0.7,3.6,2,4.8,3.8c1.2,1.9,1.8,4.1,1.8,6.8
					c0,2.3-0.5,4.3-1.4,6c-0.9,1.7-2.2,3.1-3.9,4.1c-1,0.7-2.5,1.2-4.3,1.7c1.5,0.5,2.5,1,3.2,1.6c0.4,0.3,1.1,1.1,2,2.2
					s1.4,2,1.7,2.6l5.9,12.2H69.6l-6.5-12.9c-0.8-1.7-1.6-2.7-2.2-3.2c-0.9-0.7-1.9-1-3-1h-1.1v17.1H44.5z M56.8,124.4H62
					c0.6,0,1.6-0.2,3.2-0.6c0.8-0.2,1.5-0.6,2-1.3c0.5-0.7,0.8-1.5,0.8-2.4c0-1.4-0.4-2.4-1.2-3.1c-0.8-0.7-2.3-1.1-4.6-1.1h-5.4
					V124.4z"/>
			</g>
		</g>
		<g>
			<g>
				<path class="st1" d="M100.8,134.1v-8.8h18.9v17.9c-3.6,2.6-6.8,4.4-9.6,5.4c-2.8,0.9-6.1,1.4-9.9,1.4c-4.7,0-8.5-0.9-11.5-2.6
					c-3-1.7-5.3-4.2-6.9-7.6c-1.6-3.4-2.4-7.2-2.4-11.6c0-4.6,0.9-8.6,2.7-12c1.8-3.4,4.4-6,7.8-7.7c2.7-1.4,6.3-2,10.8-2
					c4.4,0,7.6,0.4,9.8,1.3c2.2,0.8,4,2.1,5.4,3.9c1.4,1.8,2.5,4,3.2,6.7l-11.8,2.2c-0.5-1.6-1.3-2.8-2.5-3.6
					c-1.2-0.8-2.6-1.3-4.4-1.3c-2.7,0-4.8,1-6.4,3c-1.6,2-2.4,5.1-2.4,9.4c0,4.6,0.8,7.8,2.4,9.8c1.6,2,3.9,2.9,6.7,2.9
					c1.4,0,2.7-0.2,3.9-0.6c1.2-0.4,2.7-1.1,4.3-2.2v-4H100.8z"/>
			</g>
		</g>
		<g>
			<g>
				<path class="st1" d="M119.8,107.3h32.7v9h-20.5v6.7h19v8.6h-19v8.3h21.1v9.5h-33.3V107.3z"/>
			</g>
		</g>
		<g>
			<g>
				<path class="st1" d="M153.2,107.3h11.4l14.9,23.3v-23.3h11.5v42.1h-11.5l-14.8-23.1v23.1h-11.5V107.3z"/>
			</g>
		</g>
		<g>
			<g>
				<path class="st1" d="M191.1,107.3h37.1v10.4h-12.5v31.7h-12.2v-31.7h-12.5V107.3z"/>
			</g>
		</g>
		<g>
			<g>
				<path class="st1" d="M226.2,128.4c0-6.9,1.8-12.2,5.4-16c3.6-3.8,8.6-5.7,15-5.7c6.6,0,11.6,1.9,15.2,5.6
					c3.6,3.8,5.3,9,5.3,15.8c0,4.9-0.8,8.9-2.3,12.1c-1.6,3.1-3.8,5.6-6.7,7.3c-2.9,1.8-6.6,2.6-11,2.6c-4.5,0-8.1-0.8-11.1-2.3
					c-2.9-1.5-5.3-3.9-7.1-7.2C227.1,137.4,226.2,133.3,226.2,128.4z M238.4,128.4c0,4.2,0.7,7.3,2.2,9.2c1.5,1.9,3.5,2.8,6.1,2.8
					c2.6,0,4.7-0.9,6.1-2.7c1.4-1.8,2.2-5.1,2.2-9.8c0-4-0.8-6.9-2.3-8.7c-1.5-1.8-3.5-2.7-6.1-2.7c-2.5,0-4.4,0.9-5.9,2.8
					C239.1,121.1,238.4,124.1,238.4,128.4z"/>
			</g>
		</g>
	</g>
	<linearGradient id="SVGID_1_" gradientUnits="userSpaceOnUse" x1="101.2387" y1="264.857" x2="313.8549" y2="52.2407">
		<stop  offset="0" style="stop-color:#FFFFFF"/>
		<stop  offset="0.1515" style="stop-color:#BFBFBF"/>
		<stop  offset="0.2182" style="stop-color:#EBEBEB"/>
		<stop  offset="0.3273" style="stop-color:#F2F2F2"/>
		<stop  offset="0.3818" style="stop-color:#8C8C8C"/>
		<stop  offset="0.4303" style="stop-color:#D9D9D9"/>
		<stop  offset="0.5939" style="stop-color:#F2F2F2"/>
		<stop  offset="0.6727" style="stop-color:#8C8C8C"/>
		<stop  offset="0.7212" style="stop-color:#EBEBEB"/>
		<stop  offset="0.8061" style="stop-color:#E5E5E5"/>
		<stop  offset="0.8667" style="stop-color:#8C8C8C"/>
		<stop  offset="0.9394" style="stop-color:#F2F2F2"/>
		<stop  offset="1" style="stop-color:#D9D9D9"/>
	</linearGradient>
	<rect y="153.5" class="st2" width="415.1" height="10.1"/>
	<g>
		<path class="st1" d="M281.7,112.9h3.3c0.7,0,1.3,0.1,1.7,0.2c0.5,0.2,1,0.5,1.4,1c0.4,0.5,0.7,1,0.9,1.7c0.2,0.7,0.3,1.5,0.3,2.5
			c0,0.9-0.1,1.6-0.3,2.2c-0.2,0.8-0.5,1.4-1,1.8c-0.3,0.4-0.7,0.6-1.3,0.8c-0.4,0.1-0.9,0.2-1.6,0.2h-3.4V112.9z M283.5,114.7v6.9
			h1.4c0.5,0,0.9,0,1.1-0.1c0.3-0.1,0.5-0.2,0.7-0.4c0.2-0.2,0.4-0.5,0.5-1c0.1-0.5,0.2-1.1,0.2-1.9c0-0.8-0.1-1.4-0.2-1.9
			c-0.1-0.4-0.3-0.8-0.5-1c-0.2-0.2-0.5-0.4-0.8-0.5c-0.3-0.1-0.7-0.1-1.5-0.1H283.5z"/>
		<path class="st1" d="M291.4,123.3v-10.4h6.7v1.8h-4.8v2.3h4.5v1.8h-4.5v2.8h5v1.8H291.4z"/>
		<path class="st1" d="M299.9,119.9l1.8-0.2c0.1,0.7,0.3,1.2,0.6,1.5c0.3,0.3,0.8,0.5,1.3,0.5c0.6,0,1-0.1,1.3-0.4
			c0.3-0.3,0.4-0.6,0.4-1c0-0.2-0.1-0.5-0.2-0.6c-0.1-0.2-0.3-0.3-0.7-0.5c-0.2-0.1-0.7-0.2-1.5-0.5c-1-0.3-1.7-0.6-2-1
			c-0.6-0.6-0.8-1.3-0.8-2.1c0-0.5,0.1-1,0.4-1.5c0.3-0.5,0.6-0.8,1.1-1.1c0.5-0.2,1.1-0.4,1.8-0.4c1.1,0,2,0.3,2.5,0.9
			c0.6,0.6,0.9,1.3,0.9,2.3l-1.8,0.1c-0.1-0.5-0.2-0.9-0.5-1.2c-0.3-0.2-0.6-0.4-1.1-0.4c-0.5,0-0.9,0.1-1.2,0.4
			c-0.2,0.2-0.3,0.4-0.3,0.6c0,0.2,0.1,0.5,0.3,0.6c0.2,0.2,0.8,0.5,1.7,0.7c0.9,0.2,1.5,0.5,2,0.7c0.4,0.3,0.8,0.6,1,1.1
			c0.2,0.4,0.4,1,0.4,1.7c0,0.6-0.1,1.2-0.4,1.7c-0.3,0.5-0.7,0.9-1.2,1.2c-0.5,0.3-1.2,0.4-2,0.4c-1.1,0-2-0.3-2.6-0.9
			C300.4,122,300.1,121.1,299.9,119.9z"/>
		<path class="st1" d="M309.4,123.3v-10.4h6.7v1.8h-4.8v2.3h4.5v1.8h-4.5v2.8h5v1.8H309.4z"/>
		<path class="st1" d="M318.4,123.3v-10.4h1.8l3.7,6.9v-6.9h1.7v10.4h-1.8l-3.6-6.8v6.8H318.4z"/>
		<path class="st1" d="M330.3,123.3l-3.2-10.4h2l2.3,7.7l2.2-7.7h1.9l-3.2,10.4H330.3z"/>
		<path class="st1" d="M336.7,118.2c0-1.1,0.1-1.9,0.4-2.7c0.2-0.5,0.5-1,0.8-1.4c0.4-0.4,0.7-0.7,1.2-0.9c0.6-0.3,1.2-0.4,1.9-0.4
			c1.3,0,2.4,0.5,3.2,1.4c0.8,1,1.2,2.3,1.2,4c0,1.7-0.4,3-1.2,3.9s-1.8,1.4-3.2,1.4c-1.3,0-2.4-0.5-3.2-1.4
			C337.1,121.1,336.7,119.8,336.7,118.2z M338.5,118.1c0,1.2,0.2,2.1,0.7,2.7c0.5,0.6,1.1,0.9,1.8,0.9c0.7,0,1.3-0.3,1.8-0.9
			c0.5-0.6,0.7-1.5,0.7-2.7c0-1.2-0.2-2.1-0.7-2.7c-0.5-0.6-1-0.9-1.8-0.9c-0.7,0-1.3,0.3-1.8,0.9
			C338.8,116,338.5,116.9,338.5,118.1z"/>
		<path class="st1" d="M347.5,123.3V113h1.8v8.6h4.5v1.8H347.5z"/>
		<path class="st1" d="M357,123.3l-3.2-10.4h2l2.3,7.7l2.2-7.7h1.9l-3.2,10.4H357z"/>
		<path class="st1" d="M363.7,123.3v-10.4h1.8v10.4H363.7z"/>
		<path class="st1" d="M367.8,123.3v-10.4h2.7l1.6,7.1l1.6-7.1h2.7v10.4h-1.7v-8.2l-1.8,8.2h-1.7l-1.8-8.2v8.2H367.8z"/>
		<path class="st1" d="M378.9,123.3v-10.4h6.7v1.8h-4.8v2.3h4.5v1.8h-4.5v2.8h5v1.8H378.9z"/>
		<path class="st1" d="M387.9,123.3v-10.4h1.8l3.7,6.9v-6.9h1.7v10.4h-1.8l-3.6-6.8v6.8H387.9z"/>
		<path class="st1" d="M399.6,123.3v-8.6h-2.7v-1.8h7.1v1.8h-2.7v8.6H399.6z"/>
		<path class="st1" d="M405.3,118.2c0-1.1,0.1-1.9,0.4-2.7c0.2-0.5,0.5-1,0.8-1.4c0.4-0.4,0.7-0.7,1.2-0.9c0.6-0.3,1.2-0.4,1.9-0.4
			c1.3,0,2.4,0.5,3.2,1.4c0.8,1,1.2,2.3,1.2,4c0,1.7-0.4,3-1.2,3.9c-0.8,0.9-1.8,1.4-3.2,1.4c-1.3,0-2.4-0.5-3.2-1.4
			C405.7,121.1,405.3,119.8,405.3,118.2z M407.1,118.1c0,1.2,0.2,2.1,0.7,2.7c0.5,0.6,1.1,0.9,1.8,0.9c0.7,0,1.3-0.3,1.8-0.9
			c0.5-0.6,0.7-1.5,0.7-2.7c0-1.2-0.2-2.1-0.7-2.7c-0.5-0.6-1-0.9-1.8-0.9c-0.7,0-1.3,0.3-1.8,0.9
			C407.4,116,407.1,116.9,407.1,118.1z"/>
		<path class="st1" d="M281.7,144.3v-10.4h2.9c1.1,0,1.8,0.1,2.2,0.2c0.5,0.2,0.9,0.5,1.3,1c0.3,0.5,0.5,1.2,0.5,2
			c0,0.6-0.1,1.2-0.3,1.6c-0.2,0.4-0.5,0.8-0.8,1c-0.3,0.2-0.6,0.4-0.9,0.5c-0.4,0.1-1.1,0.1-1.9,0.1h-1.2v3.9H281.7z M283.5,135.7
			v3h1c0.7,0,1.2-0.1,1.4-0.2c0.2-0.1,0.4-0.3,0.6-0.5c0.1-0.2,0.2-0.5,0.2-0.8c0-0.4-0.1-0.7-0.3-0.9c-0.2-0.2-0.4-0.4-0.7-0.5
			c-0.2,0-0.7-0.1-1.3-0.1H283.5z"/>
		<path class="st1" d="M290.7,144.3v-10.4h3.8c1,0,1.7,0.1,2.1,0.3c0.4,0.2,0.8,0.5,1,1c0.3,0.5,0.4,1,0.4,1.6
			c0,0.8-0.2,1.4-0.6,1.9c-0.4,0.5-1,0.8-1.8,1c0.4,0.3,0.7,0.6,1,0.9c0.3,0.3,0.6,0.9,1,1.7l1.1,2h-2.2l-1.3-2.3
			c-0.5-0.8-0.8-1.3-1-1.5c-0.2-0.2-0.4-0.4-0.5-0.4c-0.2-0.1-0.5-0.1-0.9-0.1h-0.4v4.3H290.7z M292.5,138.3h1.3
			c0.9,0,1.4,0,1.6-0.1c0.2-0.1,0.4-0.2,0.5-0.4c0.1-0.2,0.2-0.5,0.2-0.8c0-0.4-0.1-0.6-0.2-0.8c-0.2-0.2-0.4-0.4-0.7-0.4
			c-0.1,0-0.6,0-1.3,0h-1.4V138.3z"/>
		<path class="st1" d="M300,139.2c0-1.1,0.1-1.9,0.4-2.7c0.2-0.5,0.5-1,0.8-1.4c0.4-0.4,0.7-0.7,1.2-0.9c0.6-0.3,1.2-0.4,1.9-0.4
			c1.3,0,2.4,0.5,3.2,1.4c0.8,1,1.2,2.3,1.2,4c0,1.7-0.4,3-1.2,3.9s-1.8,1.4-3.2,1.4c-1.3,0-2.4-0.5-3.2-1.4
			C300.4,142.1,300,140.8,300,139.2z M301.9,139.1c0,1.2,0.2,2.1,0.7,2.7c0.5,0.6,1.1,0.9,1.8,0.9c0.7,0,1.3-0.3,1.8-0.9
			c0.5-0.6,0.7-1.5,0.7-2.7c0-1.2-0.2-2.1-0.7-2.7c-0.5-0.6-1-0.9-1.8-0.9c-0.7,0-1.3,0.3-1.8,0.9
			C302.1,137,301.9,137.9,301.9,139.1z"/>
		<path class="st1" d="M310.8,144.3v-10.4h6.1v1.8h-4.3v2.5h3.7v1.8h-3.7v4.4H310.8z"/>
		<path class="st1" d="M319,144.3v-10.4h1.8v10.4H319z"/>
		<path class="st1" d="M322.7,140.9l1.8-0.2c0.1,0.7,0.3,1.2,0.6,1.5c0.3,0.3,0.8,0.5,1.3,0.5c0.6,0,1-0.1,1.3-0.4
			c0.3-0.3,0.4-0.6,0.4-1c0-0.2-0.1-0.5-0.2-0.6c-0.1-0.2-0.3-0.3-0.7-0.5c-0.2-0.1-0.7-0.2-1.5-0.5c-1-0.3-1.7-0.6-2-1
			c-0.6-0.6-0.8-1.3-0.8-2.1c0-0.5,0.1-1,0.4-1.5c0.3-0.5,0.6-0.8,1.1-1.1c0.5-0.2,1.1-0.4,1.8-0.4c1.1,0,2,0.3,2.5,0.9
			c0.6,0.6,0.9,1.3,0.9,2.3l-1.8,0.1c-0.1-0.5-0.2-0.9-0.5-1.2c-0.3-0.2-0.6-0.4-1.1-0.4c-0.5,0-0.9,0.1-1.2,0.4
			c-0.2,0.2-0.3,0.4-0.3,0.6c0,0.2,0.1,0.5,0.3,0.6c0.2,0.2,0.8,0.5,1.7,0.7c0.9,0.2,1.5,0.5,2,0.7c0.4,0.3,0.8,0.6,1,1.1
			c0.2,0.4,0.4,1,0.4,1.7c0,0.6-0.1,1.2-0.4,1.7c-0.3,0.5-0.7,0.9-1.2,1.2c-0.5,0.3-1.2,0.4-2,0.4c-1.1,0-2-0.3-2.6-0.9
			C323.2,143,322.8,142.1,322.7,140.9z"/>
		<path class="st1" d="M331.7,140.9l1.8-0.2c0.1,0.7,0.3,1.2,0.6,1.5c0.3,0.3,0.8,0.5,1.3,0.5c0.6,0,1-0.1,1.3-0.4
			c0.3-0.3,0.4-0.6,0.4-1c0-0.2-0.1-0.5-0.2-0.6c-0.1-0.2-0.3-0.3-0.7-0.5c-0.2-0.1-0.7-0.2-1.5-0.5c-1-0.3-1.7-0.6-2-1
			c-0.6-0.6-0.8-1.3-0.8-2.1c0-0.5,0.1-1,0.4-1.5c0.3-0.5,0.6-0.8,1.1-1.1c0.5-0.2,1.1-0.4,1.8-0.4c1.1,0,2,0.3,2.5,0.9
			c0.6,0.6,0.9,1.3,0.9,2.3l-1.8,0.1c-0.1-0.5-0.2-0.9-0.5-1.2c-0.3-0.2-0.6-0.4-1.1-0.4c-0.5,0-0.9,0.1-1.2,0.4
			c-0.2,0.2-0.3,0.4-0.3,0.6c0,0.2,0.1,0.5,0.3,0.6c0.2,0.2,0.8,0.5,1.7,0.7c0.9,0.2,1.5,0.5,2,0.7c0.4,0.3,0.8,0.6,1,1.1
			c0.2,0.4,0.4,1,0.4,1.7c0,0.6-0.1,1.2-0.4,1.7c-0.3,0.5-0.7,0.9-1.2,1.2c-0.5,0.3-1.2,0.4-2,0.4c-1.1,0-2-0.3-2.6-0.9
			S331.8,142.1,331.7,140.9z"/>
		<path class="st1" d="M341.1,144.3v-10.4h1.8v10.4H341.1z"/>
		<path class="st1" d="M344.9,139.2c0-1.1,0.1-1.9,0.4-2.7c0.2-0.5,0.5-1,0.8-1.4c0.4-0.4,0.7-0.7,1.2-0.9c0.6-0.3,1.2-0.4,1.9-0.4
			c1.3,0,2.4,0.5,3.2,1.4c0.8,1,1.2,2.3,1.2,4c0,1.7-0.4,3-1.2,3.9s-1.8,1.4-3.2,1.4c-1.3,0-2.4-0.5-3.2-1.4
			C345.3,142.1,344.9,140.8,344.9,139.2z M346.7,139.1c0,1.2,0.2,2.1,0.7,2.7c0.5,0.6,1.1,0.9,1.8,0.9c0.7,0,1.3-0.3,1.8-0.9
			c0.5-0.6,0.7-1.5,0.7-2.7c0-1.2-0.2-2.1-0.7-2.7c-0.5-0.6-1-0.9-1.8-0.9c-0.7,0-1.3,0.3-1.8,0.9C347,137,346.7,137.9,346.7,139.1z
			"/>
		<path class="st1" d="M355.6,144.3v-10.4h1.8l3.7,6.9v-6.9h1.7v10.4h-1.8l-3.6-6.8v6.8H355.6z"/>
		<path class="st1" d="M373.4,144.3h-2l-0.8-2.4H367l-0.7,2.4h-1.9l3.5-10.4h1.9L373.4,144.3z M370,140.2l-1.2-3.9l-1.2,3.9H370z"/>
		<path class="st1" d="M375,144.3V134h1.8v8.6h4.5v1.8H375z"/>
	</g>
	<g>
		<path class="st1" d="M271.1,296.7c-79.2-0.2-143.2-57.7-142.9-128.4C128,227.6,181.6,275.8,248,276
			c66.4,0.2,120.4-47.7,120.7-106.9l46.4,0.1C414.8,239.9,350.4,297,271.1,296.7z"/>
		<path class="st3" d="M245.9,268.1c-61.5-0.2-111.3-44.8-111-99.7c-0.2,46,41.5,83.5,93.1,83.6c51.6,0.1,93.6-37,93.8-83.1l36,0.1
			C357.5,223.9,307.4,268.3,245.9,268.1z"/>
		<path class="st0" d="M226.2,243.3c-46.2-0.1-83.5-33.7-83.4-74.9c-0.1,34.6,31.2,62.7,69.9,62.8c38.7,0.1,70.3-27.8,70.4-62.4
			l27.1,0.1C310,210.1,272.4,243.4,226.2,243.3z"/>
	</g>
</g>
</svg>
